<svg width="177" height="177" viewBox="0 0 177 177" fill="none" xmlns="http://www.w3.org/2000/svg">
<path d="M88.0174 23.6611L98.0289 23.7035L88.0598 33.6726L88.0174 23.6611Z" fill="#5EB7C6"/>
<path d="M88.1428 23.6877L88.1763 33.6816L78.1489 23.6542L88.1428 23.6877Z" fill="#5EB7C6"/>
<path d="M55.961 120.583L55.9645 23.653L152.892 120.58L55.961 120.583Z" fill="#5EB7C6"/>
<path d="M88.0184 23.6611L98.0299 23.7035L88.0607 33.6726L88.0184 23.6611Z" fill="#5EB7C6"/>
<path d="M88.1438 23.6877L88.1773 33.6816L78.1499 23.6542L88.1438 23.6877Z" fill="#5EB7C6"/>
<path d="M152.982 88.5726L152.998 98.548L143.007 88.5566L152.982 88.5726Z" fill="#5EB7C6"/>
<path d="M153.003 88.5929L143.047 88.569L152.979 78.6369L153.003 88.5929Z" fill="#5EB7C6"/>
<path d="M55.961 120.583L55.9645 23.653L152.892 120.58L55.961 120.583Z" fill="#5EB7C6"/>
<circle cx="78.8135" cy="98.4563" r="22.5" transform="rotate(45 78.8135 98.4563)" fill="#4A7B84"/>
<rect x="97.873" y="23.6365" width="78.0625" height="13.9711" transform="rotate(45 97.873 23.6365)" fill="#5EB7C6"/>
<path d="M152.953 23.678L153.121 58.2222L118.408 23.5093L152.953 23.678Z" fill="#5EB7C6"/>
</svg>
